<?xml version="1.0" encoding="UTF-8"?>
<!DOCTYPE svg PUBLIC "-//W3C//DTD SVG 1.1//EN" "http://www.w3.org/Graphics/SVG/1.1/DTD/svg11.dtd">
<svg xmlns="http://www.w3.org/2000/svg" version="1.1" width="24px" height="24px" style="shape-rendering:geometricPrecision; text-rendering:geometricPrecision; image-rendering:optimizeQuality; fill-rule:evenodd; clip-rule:evenodd" xmlns:xlink="http://www.w3.org/1999/xlink">
<g><path style="opacity:0.772" fill="#181818" d="M 23.5,10.5 C 23.5,11.1667 23.5,11.8333 23.5,12.5C 15.4461,20.4776 7.44611,20.4776 -0.5,12.5C -0.5,11.8333 -0.5,11.1667 -0.5,10.5C 1.73002,8.46549 4.23002,6.79883 7,5.5C 7.5,5.83333 8,6.16667 8.5,6.5C 5.73754,9.38772 6.07087,11.8877 9.5,14C 15.8511,14.4507 17.5178,11.9507 14.5,6.5C 15,6.16667 15.5,5.83333 16,5.5C 18.77,6.79883 21.27,8.46549 23.5,10.5 Z"/></g>
<g><path style="opacity:0.766" fill="#191919" d="M 9.5,7.5 C 13.1378,6.73656 14.6378,8.0699 14,11.5C 9.41546,13.4126 7.91546,12.0793 9.5,7.5 Z"/></g>
</svg>
